{"title":"Shadowhunters S01E04 720p WEB-DL DD5 1 H264 Isohunters","uid":13423851,"size":1395331802,"categoryP":"video","categoryS":"tv_shows","magnet":"?xt=urn:btih:07e1ada8572d4a1b5ceafcb6a404b90b6e28db31&amp;dn=Shadowhunters+S01E04+720p+WEB-DL+DD5+1+H264+Isohunters&amp;tr=udp%3A%2F%2Ftracker.leechers-paradise.org%3A6969&amp;tr=udp%3A%2F%2Fzer0day.ch%3A1337&amp;tr=udp%3A%2F%2Fopen.demonii.com%3A1337&amp;tr=udp%3A%2F%2Ftracker.coppersurfer.tk%3A6969&amp;tr=udp%3A%2F%2Fexodus.desync.com%3A6969","seeders":0,"leechers":1,"uploader":"IsohuntReleaseGroup","files":3,"time":1454574740,"description":"For more releases visit     http://isohunters.net      \r\n\r\n\r\nVideo\r\nID : 1\r\nFormat : AVC\r\nFormat/Info : Advanced Video Codec\r\nFormat profile :   \r\nFormat settings, CABAC : No\r\nFormat settings, ReFrames : 2 frames\r\nCodec ID : V_MPEG4/ISO/AVC\r\nDuration : 42mn 22s\r\nBit rate : 3 918 Kbps\r\nWidth : 1 280 pixels\r\nHeight : 720 pixels\r\nDisplay aspect ratio : 16:9\r\nFrame rate mode : Constant\r\nFrame rate : 23.976 (24000/1001) fps\r\nColor space : YUV\r\nChroma subsampling : 4:2:0\r\nBit depth : 8 bits\r\nScan type : Progressive\r\nBits/(Pixel*Frame) : 0.177\r\nStream size : 1.16 GiB (89%)\r\nTitle : Shadowhunters.S01E04.720p.WEB-DL.DD5.1.H264-RARBG\r\nLanguage : English\r\nDefault : Yes\r\nForced : No\r\nColor range : Limited\r\nColor primaries : BT.709\r\nTransfer characteristics : BT.709\r\nMatrix coefficients : BT.709\r\n\r\nAudio\r\nID : 2\r\nFormat : AC-3\r\nFormat/Info : Audio Coding 3\r\nMode extension : CM (complete main)\r\nFormat settings, Endianness : Big\r\nCodec ID : A_AC3\r\nDuration : 42mn 22s\r\nBit rate mode : Constant\r\nBit rate : 384 Kbps\r\nChannel(s) : 6 channels\r\nChannel positions : Front: L C R, Side: L R, LFE\r\nSampling rate : 48.0 KHz\r\nFrame rate : 31.250 fps (1536 spf)\r\nCompression mode : Lossy\r\nStream size : 116 MiB (9%)\r\nTitle : Shadowhunters.S01E04.720p.WEB-DL.DD5.1.H264-RARBG\r\nLanguage : English\r\nDefault : Yes\r\nForced : No\r\n\r\nText\r\nID : 3\r\nFormat : UTF-8\r\nCodec ID : S_TEXT/UTF8\r\nCodec ID/Info : UTF-8 Plain Text\r\nDefault : Yes\r\nForced : No","torrent":{"xt":"urn:btih:07e1ada8572d4a1b5ceafcb6a404b90b6e28db31","amp;dn":"Shadowhunters+S01E04+720p+WEB-DL+DD5+1+H264+Isohunters","amp;tr":["udp%3A%2F%2Ftracker.leechers-paradise.org%3A6969","udp%3A%2F%2Fzer0day.ch%3A1337","udp%3A%2F%2Fopen.demonii.com%3A1337","udp%3A%2F%2Ftracker.coppersurfer.tk%3A6969","udp%3A%2F%2Fexodus.desync.com%3A6969"],"infoHash":"07e1ada8572d4a1b5ceafcb6a404b90b6e28db31","infoHashBuffer":{"type":"Buffer","data":[7,225,173,168,87,45,74,27,92,234,252,182,164,4,185,11,110,40,219,49]},"announce":[],"urlList":[]}}